<svg width="24" height="24" viewBox="0 0 24 24" fill="none" xmlns="http://www.w3.org/2000/svg">
<path d="M5 12H19M16 6.49999C15.7732 6.05995 15.2536 5.67164 14.5265 5.39899C13.7994 5.12635 12.9084 4.98562 12 4.99999H11C10.0717 4.99999 9.1815 5.36874 8.52513 6.02512C7.86875 6.6815 7.5 7.57174 7.5 8.49999C7.5 9.42825 7.86875 10.3185 8.52513 10.9749C9.1815 11.6312 10.0717 12 11 12H13C13.9283 12 14.8185 12.3687 15.4749 13.0251C16.1313 13.6815 16.5 14.5717 16.5 15.5C16.5 16.4283 16.1313 17.3185 15.4749 17.9749C14.8185 18.6312 13.9283 19 13 19H11.5C10.5916 19.0144 9.70056 18.8736 8.9735 18.601C8.24644 18.3283 7.72675 17.94 7.5 17.5" stroke="#545F71" stroke-width="2" stroke-linecap="round" stroke-linejoin="round"/>
</svg>
